<svg width="48" height="28" viewBox="0 0 48 28" fill="none" xmlns="http://www.w3.org/2000/svg">
<path d="M6.19474 11.9179L7.54484 27.7998L4.13767 15.2642L1.61897 16.3837L0 0L3.76861 12.9963L6.19474 11.9179Z" fill="#F1ED07"/>
<path d="M20.5332 23.2025H12.7422V2.91895H20.4542C22.5371 2.91895 24.3364 3.32501 25.8526 4.13715C27.3751 4.94268 28.5485 6.10476 29.3723 7.62339C30.2029 9.13541 30.6181 10.9478 30.6181 13.0607C30.6181 15.1736 30.2062 16.9894 29.3822 18.508C28.5582 20.02 27.3916 21.1821 25.8821 21.9943C24.3728 22.7998 22.5898 23.2025 20.5332 23.2025ZM18.2395 18.5279H20.3355C21.3374 18.5279 22.191 18.3661 22.8962 18.0424C23.6082 17.7189 24.1487 17.1611 24.5177 16.3687C24.8934 15.5763 25.0814 14.4738 25.0814 13.0607C25.0814 11.6477 24.8902 10.5451 24.5078 9.75277C24.1321 8.96044 23.5785 8.40251 22.8469 8.07898C22.1217 7.75545 21.2319 7.59368 20.1773 7.59368H18.2395V18.5279ZM40.5177 23.4799C38.8962 23.4799 37.4988 23.1695 36.3254 22.5488C35.1588 21.9216 34.2591 21.0235 33.6263 19.855C33.0001 18.6797 32.6871 17.2733 32.6871 15.6358C32.6871 14.0644 33.0034 12.691 33.6362 11.5157C34.269 10.3404 35.1621 9.42593 36.3155 8.77227C37.4691 8.11859 38.8301 7.79176 40.399 7.79176C41.5458 7.79176 42.584 7.97003 43.5133 8.32658C44.4428 8.68313 45.2371 9.20144 45.8962 9.88153C46.5554 10.555 47.0629 11.3738 47.4188 12.3377C47.7747 13.3018 47.9528 14.3879 47.9528 15.5962V16.8639H34.3876V13.8531H42.93C42.9236 13.4173 42.8114 13.0343 42.5939 12.7041C42.3829 12.3674 42.0963 12.1067 41.7338 11.9218C41.3778 11.7303 40.9724 11.6346 40.5177 11.6346C40.0759 11.6346 39.6707 11.7303 39.3014 11.9218C38.9324 12.1067 38.6357 12.3642 38.4117 12.6942C38.1941 13.0244 38.0789 13.4107 38.0656 13.8531V17.1016C38.0656 17.5901 38.1678 18.026 38.3721 18.4089C38.5765 18.7919 38.8697 19.0923 39.2521 19.3102C39.6343 19.5282 40.0957 19.6371 40.6363 19.6371C41.012 19.6371 41.3548 19.5843 41.6645 19.4786C41.9809 19.3729 42.2512 19.2211 42.4753 19.0231C42.6994 18.8184 42.8642 18.574 42.9696 18.29H47.9528C47.7814 19.3466 47.376 20.2643 46.7367 21.0434C46.0973 21.8159 45.2502 22.4168 44.1956 22.846C43.1475 23.2685 41.9215 23.4799 40.5177 23.4799Z" fill="#FE0004"/>
</svg>
