<svg width="146" height="22" viewBox="0 0 146 22" fill="none" xmlns="http://www.w3.org/2000/svg">
<path d="M7.05044 10.717L7.92328 20.9671L5.72054 12.8767L4.0922 13.5992L3.04553 3.02526L5.48194 11.413L7.05044 10.717Z" fill="#F1ED07"/>
<path d="M16.3201 18H11.2832V4.90909H16.269C17.6156 4.90909 18.7789 5.17116 19.7591 5.69531C20.7434 6.2152 21.502 6.9652 22.0346 7.94531C22.5716 8.92116 22.84 10.0909 22.84 11.4545C22.84 12.8182 22.5737 13.9901 22.041 14.9702C21.5083 15.946 20.7541 16.696 19.7782 17.2202C18.8024 17.7401 17.6497 18 16.3201 18ZM14.8372 14.983H16.1923C16.84 14.983 17.3919 14.8786 17.8478 14.6697C18.3081 14.4609 18.6575 14.1009 18.8961 13.5895C19.139 13.0781 19.2605 12.3665 19.2605 11.4545C19.2605 10.5426 19.1369 9.83097 18.8897 9.3196C18.6468 8.80824 18.2889 8.44815 17.8159 8.23935C17.3471 8.03054 16.7718 7.92614 16.09 7.92614H14.8372V14.983ZM29.2401 18.179C28.1918 18.179 27.2884 17.9787 26.5298 17.5781C25.7756 17.1733 25.1939 16.5937 24.7848 15.8395C24.38 15.081 24.1776 14.1733 24.1776 13.1165C24.1776 12.1023 24.3821 11.2159 24.7912 10.4574C25.2003 9.69886 25.7777 9.10866 26.5234 8.68679C27.2692 8.26491 28.1491 8.05398 29.1634 8.05398C29.9048 8.05398 30.576 8.16903 31.1768 8.39915C31.7777 8.62926 32.2912 8.96378 32.7173 9.4027C33.1435 9.83736 33.4716 10.3658 33.7017 10.9879C33.9318 11.6101 34.0469 12.3111 34.0469 13.0909V13.9091H25.277V11.9659H30.7997C30.7955 11.6847 30.723 11.4375 30.5824 11.2244C30.446 11.0071 30.2607 10.8388 30.0263 10.7195C29.7962 10.5959 29.5341 10.5341 29.2401 10.5341C28.9545 10.5341 28.6925 10.5959 28.4538 10.7195C28.2152 10.8388 28.0234 11.005 27.8786 11.218C27.7379 11.4311 27.6634 11.6804 27.6548 11.9659V14.0625C27.6548 14.3778 27.7209 14.6591 27.853 14.9062C27.9851 15.1534 28.1747 15.3473 28.4219 15.4879C28.669 15.6286 28.9673 15.6989 29.3168 15.6989C29.5597 15.6989 29.7813 15.6648 29.9815 15.5966C30.1861 15.5284 30.3608 15.4304 30.5057 15.3026C30.6506 15.1705 30.7571 15.0128 30.8253 14.8295H34.0469C33.9361 15.5114 33.674 16.1037 33.2607 16.6065C32.8473 17.1051 32.2997 17.4929 31.6179 17.7699C30.9403 18.0426 30.1477 18.179 29.2401 18.179ZM41.8532 13.7045V8.18182H45.3816V18H42.0321V16.1335H41.9299C41.7168 16.7599 41.3439 17.25 40.8113 17.6037C40.2786 17.9531 39.6458 18.1278 38.9128 18.1278C38.2267 18.1278 37.6259 17.9702 37.1103 17.6548C36.5989 17.3395 36.2005 16.9048 35.915 16.3509C35.6337 15.7969 35.4909 15.1619 35.4867 14.446V8.18182H39.0151V13.7045C39.0194 14.1903 39.1429 14.5717 39.3858 14.8487C39.633 15.1257 39.9782 15.2642 40.4213 15.2642C40.7154 15.2642 40.9689 15.2024 41.182 15.0788C41.3993 14.951 41.5655 14.772 41.6806 14.5419C41.7999 14.3075 41.8574 14.0284 41.8532 13.7045ZM53.0312 8.18182V10.7386H46.5625V8.18182H53.0312ZM47.8153 5.82955H51.3438V14.8423C51.3438 14.9787 51.3672 15.0938 51.4141 15.1875C51.4609 15.277 51.5334 15.3452 51.6314 15.392C51.7294 15.4347 51.8551 15.456 52.0085 15.456C52.1151 15.456 52.2386 15.4432 52.3793 15.4176C52.5241 15.392 52.6307 15.3707 52.6989 15.3537L53.2102 17.8338C53.0526 17.8807 52.8267 17.9382 52.5327 18.0064C52.2429 18.0746 51.8977 18.1193 51.4972 18.1406C50.6875 18.1832 50.0078 18.1001 49.4581 17.8913C48.9084 17.6783 48.495 17.3437 48.218 16.8878C47.9411 16.4318 47.8068 15.8608 47.8153 15.1747V5.82955Z" fill="#FE0004"/>
<path d="M59.6678 18H54.6309V4.90909H59.6167C60.9632 4.90909 62.1266 5.17116 63.1067 5.69531C64.0911 6.2152 64.8496 6.9652 65.3823 7.94531C65.9192 8.92116 66.1877 10.0909 66.1877 11.4545C66.1877 12.8182 65.9213 13.9901 65.3887 14.9702C64.856 15.946 64.1017 16.696 63.1259 17.2202C62.15 17.7401 60.9973 18 59.6678 18ZM58.1848 14.983H59.54C60.1877 14.983 60.7395 14.8786 61.1955 14.6697C61.6557 14.4609 62.0051 14.1009 62.2438 13.5895C62.4867 13.0781 62.6081 12.3665 62.6081 11.4545C62.6081 10.5426 62.4846 9.83097 62.2374 9.3196C61.9945 8.80824 61.6365 8.44815 61.1635 8.23935C60.6948 8.03054 60.1195 7.92614 59.4377 7.92614H58.1848V14.983ZM72.5877 18.179C71.5394 18.179 70.636 17.9787 69.8775 17.5781C69.1232 17.1733 68.5415 16.5937 68.1325 15.8395C67.7276 15.081 67.5252 14.1733 67.5252 13.1165C67.5252 12.1023 67.7298 11.2159 68.1388 10.4574C68.5479 9.69886 69.1254 9.10866 69.8711 8.68679C70.6168 8.26491 71.4968 8.05398 72.511 8.05398C73.2525 8.05398 73.9237 8.16903 74.5245 8.39915C75.1254 8.62926 75.6388 8.96378 76.065 9.4027C76.4911 9.83736 76.8192 10.3658 77.0494 10.9879C77.2795 11.6101 77.3945 12.3111 77.3945 13.0909V13.9091H68.6246V11.9659H74.1474C74.1431 11.6847 74.0707 11.4375 73.93 11.2244C73.7937 11.0071 73.6083 10.8388 73.3739 10.7195C73.1438 10.5959 72.8817 10.5341 72.5877 10.5341C72.3022 10.5341 72.0401 10.5959 71.8015 10.7195C71.5629 10.8388 71.3711 11.005 71.2262 11.218C71.0856 11.4311 71.011 11.6804 71.0025 11.9659V14.0625C71.0025 14.3778 71.0685 14.6591 71.2006 14.9062C71.3327 15.1534 71.5224 15.3473 71.7695 15.4879C72.0167 15.6286 72.315 15.6989 72.6644 15.6989C72.9073 15.6989 73.1289 15.6648 73.3292 15.5966C73.5337 15.5284 73.7085 15.4304 73.8533 15.3026C73.9982 15.1705 74.1048 15.0128 74.1729 14.8295H77.3945C77.2837 15.5114 77.0217 16.1037 76.6083 16.6065C76.195 17.1051 75.6474 17.4929 74.9656 17.7699C74.288 18.0426 73.4954 18.179 72.5877 18.179ZM87.8088 11.3778H84.5616C84.5446 11.1776 84.4743 11.005 84.3507 10.8601C84.2271 10.7152 84.0673 10.6044 83.8713 10.5277C83.6795 10.4467 83.4664 10.4062 83.2321 10.4062C82.9295 10.4062 82.6696 10.4616 82.4522 10.5724C82.2349 10.6832 82.1284 10.8409 82.1326 11.0455C82.1284 11.1903 82.1902 11.3246 82.318 11.4482C82.4501 11.5717 82.7037 11.6676 83.0787 11.7358L85.073 12.0938C86.0787 12.277 86.8265 12.5859 87.3166 13.0206C87.8109 13.451 88.0602 14.0284 88.0645 14.7528C88.0602 15.4517 87.8514 16.0589 87.438 16.5746C87.0289 17.0859 86.4686 17.4822 85.7569 17.7635C85.0495 18.0405 84.242 18.179 83.3343 18.179C81.8343 18.179 80.6603 17.8722 79.8123 17.2585C78.9686 16.6449 78.4977 15.8352 78.3997 14.8295H81.9025C81.9494 15.1406 82.1028 15.3814 82.3627 15.5518C82.627 15.718 82.9593 15.8011 83.3599 15.8011C83.6838 15.8011 83.9501 15.7457 84.1589 15.6349C84.372 15.5241 84.4806 15.3665 84.4849 15.1619C84.4806 14.9744 84.3869 14.8253 84.2037 14.7145C84.0247 14.6037 83.7434 14.5142 83.3599 14.446L81.6213 14.1392C80.6199 13.9645 79.8699 13.6321 79.3713 13.142C78.8727 12.652 78.6255 12.0213 78.6298 11.25C78.6255 10.5682 78.8045 9.99077 79.1667 9.51776C79.5332 9.04048 80.0552 8.67827 80.7328 8.43111C81.4146 8.17969 82.2221 8.05398 83.1554 8.05398C84.5744 8.05398 85.693 8.34801 86.5112 8.93608C87.3336 9.52415 87.7662 10.3381 87.8088 11.3778ZM95.2715 8.18182V10.7386H88.8027V8.18182H95.2715ZM90.0556 5.82955H93.584V14.8423C93.584 14.9787 93.6074 15.0938 93.6543 15.1875C93.7012 15.277 93.7736 15.3452 93.8716 15.392C93.9696 15.4347 94.0953 15.456 94.2488 15.456C94.3553 15.456 94.4789 15.4432 94.6195 15.4176C94.7644 15.392 94.8709 15.3707 94.9391 15.3537L95.4505 17.8338C95.2928 17.8807 95.0669 17.9382 94.7729 18.0064C94.4831 18.0746 94.138 18.1193 93.7374 18.1406C92.9277 18.1832 92.248 18.1001 91.6983 17.8913C91.1486 17.6783 90.7353 17.3437 90.4583 16.8878C90.1813 16.4318 90.0471 15.8608 90.0556 15.1747V5.82955ZM96.7113 18V8.18182H100.137V10.0483H100.24C100.419 9.35795 100.702 8.85298 101.09 8.53338C101.482 8.21378 101.94 8.05398 102.464 8.05398C102.618 8.05398 102.769 8.06676 102.918 8.09233C103.071 8.11364 103.218 8.1456 103.359 8.18821V11.1989C103.184 11.1392 102.969 11.0945 102.713 11.0646C102.458 11.0348 102.238 11.0199 102.055 11.0199C101.71 11.0199 101.399 11.0987 101.122 11.2564C100.849 11.4098 100.634 11.6271 100.476 11.9084C100.319 12.1854 100.24 12.5114 100.24 12.8864V18H96.7113ZM108.658 18.179C107.61 18.179 106.706 17.9787 105.948 17.5781C105.194 17.1733 104.612 16.5937 104.203 15.8395C103.798 15.081 103.596 14.1733 103.596 13.1165C103.596 12.1023 103.8 11.2159 104.209 10.4574C104.618 9.69886 105.196 9.10866 105.941 8.68679C106.687 8.26491 107.567 8.05398 108.581 8.05398C109.323 8.05398 109.994 8.16903 110.595 8.39915C111.196 8.62926 111.709 8.96378 112.135 9.4027C112.561 9.83736 112.89 10.3658 113.12 10.9879C113.35 11.6101 113.465 12.3111 113.465 13.0909V13.9091H104.695V11.9659H110.218C110.213 11.6847 110.141 11.4375 110 11.2244C109.864 11.0071 109.679 10.8388 109.444 10.7195C109.214 10.5959 108.952 10.5341 108.658 10.5341C108.373 10.5341 108.11 10.5959 107.872 10.7195C107.633 10.8388 107.441 11.005 107.297 11.218C107.156 11.4311 107.081 11.6804 107.073 11.9659V14.0625C107.073 14.3778 107.139 14.6591 107.271 14.9062C107.403 15.1534 107.593 15.3473 107.84 15.4879C108.087 15.6286 108.385 15.6989 108.735 15.6989C108.978 15.6989 109.199 15.6648 109.4 15.5966C109.604 15.5284 109.779 15.4304 109.924 15.3026C110.069 15.1705 110.175 15.0128 110.243 14.8295H113.465C113.354 15.5114 113.092 16.1037 112.679 16.6065C112.265 17.1051 111.718 17.4929 111.036 17.7699C110.358 18.0426 109.566 18.179 108.658 18.179ZM114.854 18V4.90909H118.382V9.89489H118.433C118.561 9.5625 118.748 9.25781 118.996 8.98082C119.243 8.69957 119.55 8.47585 119.916 8.30966C120.282 8.1392 120.709 8.05398 121.194 8.05398C121.842 8.05398 122.458 8.22656 123.042 8.57173C123.63 8.9169 124.107 9.46023 124.474 10.2017C124.844 10.9432 125.03 11.9062 125.03 13.0909C125.03 14.2244 124.853 15.1641 124.499 15.9098C124.15 16.6555 123.681 17.2116 123.093 17.5781C122.509 17.9446 121.868 18.1278 121.169 18.1278C120.709 18.1278 120.297 18.0533 119.935 17.9041C119.577 17.7507 119.27 17.544 119.015 17.2841C118.763 17.0199 118.569 16.7216 118.433 16.3892H118.356V18H114.854ZM118.305 13.0909C118.305 13.5682 118.367 13.9815 118.491 14.331C118.618 14.6761 118.797 14.9446 119.028 15.1364C119.262 15.3239 119.541 15.4176 119.865 15.4176C120.189 15.4176 120.464 15.326 120.689 15.1428C120.92 14.9553 121.094 14.6889 121.214 14.3438C121.337 13.9943 121.399 13.5767 121.399 13.0909C121.399 12.6051 121.337 12.1896 121.214 11.8445C121.094 11.495 120.92 11.2287 120.689 11.0455C120.464 10.858 120.189 10.7642 119.865 10.7642C119.541 10.7642 119.262 10.858 119.028 11.0455C118.797 11.2287 118.618 11.495 118.491 11.8445C118.367 12.1896 118.305 12.6051 118.305 13.0909ZM132.873 13.7045V8.18182H136.401V18H133.052V16.1335H132.949C132.736 16.7599 132.363 17.25 131.831 17.6037C131.298 17.9531 130.665 18.1278 129.932 18.1278C129.246 18.1278 128.645 17.9702 128.13 17.6548C127.618 17.3395 127.22 16.9048 126.934 16.3509C126.653 15.7969 126.51 15.1619 126.506 14.446V8.18182H130.035V13.7045C130.039 14.1903 130.162 14.5717 130.405 14.8487C130.653 15.1257 130.998 15.2642 131.441 15.2642C131.735 15.2642 131.988 15.2024 132.202 15.0788C132.419 14.951 132.585 14.772 132.7 14.5419C132.819 14.3075 132.877 14.0284 132.873 13.7045ZM144.051 8.18182V10.7386H137.582V8.18182H144.051ZM138.835 5.82955H142.363V14.8423C142.363 14.9787 142.387 15.0938 142.434 15.1875C142.48 15.277 142.553 15.3452 142.651 15.392C142.749 15.4347 142.875 15.456 143.028 15.456C143.135 15.456 143.258 15.4432 143.399 15.4176C143.544 15.392 143.65 15.3707 143.718 15.3537L144.23 17.8338C144.072 17.8807 143.846 17.9382 143.552 18.0064C143.262 18.0746 142.917 18.1193 142.517 18.1406C141.707 18.1832 141.027 18.1001 140.478 17.8913C139.928 17.6783 139.515 17.3437 139.238 16.8878C138.961 16.4318 138.826 15.8608 138.835 15.1747V5.82955Z" fill="white"/>
</svg>
