<svg width="23" height="23" viewBox="0 0 23 23" fill="none" xmlns="http://www.w3.org/2000/svg">
<path d="M11.5 23C17.8513 23 23 17.8513 23 11.5C23 5.14873 17.8513 0 11.5 0C5.14873 0 0 5.14873 0 11.5C0 17.8513 5.14873 23 11.5 23Z" fill="#F1ED07"/>
<path fill-rule="evenodd" clip-rule="evenodd" d="M11.5 23C17.8514 23 23 17.8514 23 11.5C23 5.14855 17.8514 0 11.5 0C5.14855 0 0 5.14855 0 11.5C0 17.8514 5.14855 23 11.5 23ZM15.2168 13.0652L16.9924 14.8454C17.3454 15.2007 17.334 15.7883 16.9694 16.1563L16.4611 16.6532L16.4496 16.6428C16.0236 16.9698 15.5176 17.1763 14.9845 17.2408C14.8695 17.2534 12.1842 17.5053 8.85155 14.1657C6.44 11.7495 5.55105 9.9682 5.7868 8.0201C5.81325 7.7763 5.87305 7.5348 5.9708 7.28065C6.0743 7.01385 6.2146 6.76545 6.3825 6.55155L6.3687 6.53775L6.86895 6.0329C7.2358 5.6649 7.8223 5.65455 8.1742 6.00875L9.95095 7.78895C10.304 8.14315 10.2937 8.72965 9.92795 9.09765L9.63125 9.3932L9.03095 9.99465C9.06362 10.0519 9.09583 10.1094 9.12755 10.1671L9.1287 10.1706C9.44265 10.7375 9.87275 11.5126 10.6869 12.328C11.5012 13.1445 12.274 13.5746 12.8398 13.8885L13.0157 13.9875L13.9104 13.0905C14.2772 12.7225 14.8626 12.711 15.2168 13.0652Z" fill="black"/>
</svg>
